<svg width="24" height="24" viewBox="0 0 24 24" fill="none" xmlns="http://www.w3.org/2000/svg">
<path fill-rule="evenodd" clip-rule="evenodd" d="M6.99982 3.25C7.41403 3.25 7.74982 3.58579 7.74982 4V5.66763C10.5776 5.4158 13.4221 5.4158 16.2498 5.66763V4C16.2498 3.58579 16.5856 3.25 16.9998 3.25C17.414 3.25 17.7498 3.58579 17.7498 4V5.81644C19.2429 6.02754 20.4224 7.20847 20.6221 8.71484L20.7086 9.36779C21.0726 12.1141 21.0412 14.8984 20.6152 17.6359C20.4042 18.9919 19.3026 20.0335 17.9368 20.1681L16.7438 20.2858C13.5888 20.5969 10.4108 20.5969 7.25574 20.2858L6.06274 20.1681C4.697 20.0335 3.59534 18.9919 3.38433 17.6359C2.95837 14.8984 2.92693 12.1141 3.29097 9.36779L3.37752 8.71484C3.57719 7.20845 4.75674 6.02751 6.24982 5.81643V4C6.24982 3.58579 6.5856 3.25 6.99982 3.25ZM7.44498 7.2028C10.4742 6.90408 13.5254 6.90408 16.5546 7.2028L17.46 7.2921C18.3268 7.37757 19.0206 8.04854 19.1351 8.91194L19.2216 9.56489C19.2519 9.793 19.2792 10.0214 19.3037 10.25H4.69588C4.72036 10.0214 4.74772 9.79301 4.77796 9.5649L4.86451 8.91194C4.97896 8.04854 5.67278 7.37757 6.53953 7.2921L7.44498 7.2028ZM4.57665 11.75C4.47847 13.6381 4.5752 15.5332 4.86649 17.4052C4.97233 18.0854 5.52491 18.6078 6.20995 18.6754L7.40295 18.793C10.4601 19.0945 13.5395 19.0945 16.5966 18.793L17.7896 18.6754C18.4747 18.6078 19.0272 18.0854 19.1331 17.4052C19.4244 15.5332 19.5211 13.6381 19.4229 11.75H4.57665Z" fill="#6C6D6D"/>
</svg>
